<svg width="169" height="22" viewBox="0 0 169 22" fill="none" xmlns="http://www.w3.org/2000/svg">
<g opacity="0.8">
<path d="M9.20996 14.3975H3.77539V10.9697H9.20996C10.0498 10.9697 10.7334 10.833 11.2607 10.5596C11.7881 10.2764 12.1738 9.88574 12.418 9.3877C12.6621 8.88965 12.7842 8.32812 12.7842 7.70312C12.7842 7.06836 12.6621 6.47754 12.418 5.93066C12.1738 5.38379 11.7881 4.94434 11.2607 4.6123C10.7334 4.28027 10.0498 4.11426 9.20996 4.11426H5.29883V22H0.904297V0.671875H9.20996C10.8799 0.671875 12.3105 0.974609 13.502 1.58008C14.7031 2.17578 15.6211 3.00098 16.2559 4.05566C16.8906 5.11035 17.208 6.31641 17.208 7.67383C17.208 9.05078 16.8906 10.2422 16.2559 11.248C15.6211 12.2539 14.7031 13.0303 13.502 13.5771C12.3105 14.124 10.8799 14.3975 9.20996 14.3975ZM26.4131 0.671875V22H22.0332V0.671875H26.4131ZM49.3877 0.671875V22H44.9932L36.4238 7.70312V22H32.0293V0.671875H36.4238L45.0078 14.9834V0.671875H49.3877ZM69.0225 18.5723V22H57.6699V18.5723H69.0225ZM59.1055 0.671875V22H54.7109V0.671875H59.1055ZM67.543 9.3584V12.6982H57.6699V9.3584H67.543ZM69.0078 0.671875V4.11426H57.6699V0.671875H69.0078ZM81.7578 4.31934L75.957 22H71.2842L79.209 0.671875H82.1826L81.7578 4.31934ZM86.5771 22L80.7617 4.31934L80.293 0.671875H83.2959L91.2646 22H86.5771ZM86.3135 14.0605V17.5029H75.0488V14.0605H86.3135ZM103.048 14.3975H97.6133V10.9697H103.048C103.888 10.9697 104.571 10.833 105.099 10.5596C105.626 10.2764 106.012 9.88574 106.256 9.3877C106.5 8.88965 106.622 8.32812 106.622 7.70312C106.622 7.06836 106.5 6.47754 106.256 5.93066C106.012 5.38379 105.626 4.94434 105.099 4.6123C104.571 4.28027 103.888 4.11426 103.048 4.11426H99.1367V22H94.7422V0.671875H103.048C104.718 0.671875 106.148 0.974609 107.34 1.58008C108.541 2.17578 109.459 3.00098 110.094 4.05566C110.729 5.11035 111.046 6.31641 111.046 7.67383C111.046 9.05078 110.729 10.2422 110.094 11.248C109.459 12.2539 108.541 13.0303 107.34 13.5771C106.148 14.124 104.718 14.3975 103.048 14.3975ZM123.884 14.3975H118.449V10.9697H123.884C124.724 10.9697 125.407 10.833 125.935 10.5596C126.462 10.2764 126.848 9.88574 127.092 9.3877C127.336 8.88965 127.458 8.32812 127.458 7.70312C127.458 7.06836 127.336 6.47754 127.092 5.93066C126.848 5.38379 126.462 4.94434 125.935 4.6123C125.407 4.28027 124.724 4.11426 123.884 4.11426H119.973V22H115.578V0.671875H123.884C125.554 0.671875 126.984 0.974609 128.176 1.58008C129.377 2.17578 130.295 3.00098 130.93 4.05566C131.564 5.11035 131.882 6.31641 131.882 7.67383C131.882 9.05078 131.564 10.2422 130.93 11.248C130.295 12.2539 129.377 13.0303 128.176 13.5771C126.984 14.124 125.554 14.3975 123.884 14.3975ZM150.125 18.5723V22H139.388V18.5723H150.125ZM140.809 0.671875V22H136.414V0.671875H140.809ZM168.456 18.5723V22H157.104V18.5723H168.456ZM158.539 0.671875V22H154.145V0.671875H158.539ZM166.977 9.3584V12.6982H157.104V9.3584H166.977ZM168.441 0.671875V4.11426H157.104V0.671875H168.441Z" fill="white"/>
<path d="M3.77539 14.3975H2.77539V15.3975H3.77539V14.3975ZM3.77539 10.9697V9.96973H2.77539V10.9697H3.77539ZM11.2607 10.5596L11.7211 11.4473L11.7275 11.444L11.7339 11.4406L11.2607 10.5596ZM12.418 5.93066L11.5048 6.33832L12.418 5.93066ZM5.29883 4.11426V3.11426H4.29883V4.11426H5.29883ZM5.29883 22V23H6.29883V22H5.29883ZM0.904297 22H-0.0957031V23H0.904297V22ZM0.904297 0.671875V-0.328125H-0.0957031V0.671875H0.904297ZM13.502 1.58008L13.0489 2.47161L13.0577 2.47596L13.502 1.58008ZM13.502 13.5771L13.0876 12.667L13.0848 12.6683L13.502 13.5771ZM9.20996 13.3975H3.77539V15.3975H9.20996V13.3975ZM4.77539 14.3975V10.9697H2.77539V14.3975H4.77539ZM3.77539 11.9697H9.20996V9.96973H3.77539V11.9697ZM9.20996 11.9697C10.1478 11.9697 11.005 11.8186 11.7211 11.4473L10.8004 9.67182C10.4618 9.84738 9.95182 9.96973 9.20996 9.96973V11.9697ZM11.7339 11.4406C12.43 11.0667 12.9723 10.5287 13.3159 9.82785L11.52 8.94754C11.3753 9.24274 11.1461 9.48603 10.7876 9.67858L11.7339 11.4406ZM13.3159 9.82785C13.6353 9.17631 13.7842 8.46122 13.7842 7.70312H11.7842C11.7842 8.19503 11.6889 8.60299 11.52 8.94754L13.3159 9.82785ZM13.7842 7.70312C13.7842 6.93645 13.6359 6.20576 13.3311 5.52301L11.5048 6.33832C11.6883 6.74932 11.7842 7.20027 11.7842 7.70312H13.7842ZM13.3311 5.52301C13.003 4.78797 12.4811 4.19896 11.7936 3.76607L10.7279 5.45854C11.0951 5.68971 11.3447 5.97961 11.5048 6.33832L13.3311 5.52301ZM11.7936 3.76607C11.0602 3.30434 10.1747 3.11426 9.20996 3.11426V5.11426C9.9249 5.11426 10.4066 5.25621 10.7279 5.45854L11.7936 3.76607ZM9.20996 3.11426H5.29883V5.11426H9.20996V3.11426ZM4.29883 4.11426V22H6.29883V4.11426H4.29883ZM5.29883 21H0.904297V23H5.29883V21ZM1.9043 22V0.671875H-0.0957031V22H1.9043ZM0.904297 1.67188H9.20996V-0.328125H0.904297V1.67188ZM9.20996 1.67188C10.7609 1.67188 12.0285 1.95301 13.0489 2.47156L13.955 0.688593C12.5926 -0.00379348 10.9989 -0.328125 9.20996 -0.328125V1.67188ZM13.0577 2.47596C14.1037 2.99474 14.8715 3.69467 15.3991 4.57133L17.1127 3.54C16.3707 2.30728 15.3025 1.35682 13.9463 0.684199L13.0577 2.47596ZM15.3991 4.57133C15.9307 5.45464 16.208 6.47888 16.208 7.67383H18.208C18.208 6.15393 17.8506 4.76606 17.1127 3.54L15.3991 4.57133ZM16.208 7.67383C16.208 8.89228 15.9291 9.89214 15.4102 10.7144L17.1015 11.7817C17.8522 10.5922 18.208 9.20929 18.208 7.67383H16.208ZM15.4102 10.7144C14.8907 11.5376 14.1315 12.1917 13.0876 12.667L13.9163 14.4873C15.2747 13.8688 16.3515 12.9702 17.1015 11.7817L15.4102 10.7144ZM13.0848 12.6683C12.0549 13.141 10.774 13.3975 9.20996 13.3975V15.3975C10.9858 15.3975 12.5662 15.107 13.9191 14.486L13.0848 12.6683ZM26.4131 0.671875H27.4131V-0.328125H26.4131V0.671875ZM26.4131 22V23H27.4131V22H26.4131ZM22.0332 22H21.0332V23H22.0332V22ZM22.0332 0.671875V-0.328125H21.0332V0.671875H22.0332ZM25.4131 0.671875V22H27.4131V0.671875H25.4131ZM26.4131 21H22.0332V23H26.4131V21ZM23.0332 22V0.671875H21.0332V22H23.0332ZM22.0332 1.67188H26.4131V-0.328125H22.0332V1.67188ZM49.3877 0.671875H50.3877V-0.328125H49.3877V0.671875ZM49.3877 22V23H50.3877V22H49.3877ZM44.9932 22L44.1354 22.5141L44.4267 23H44.9932V22ZM36.4238 7.70312L37.2816 7.18902L35.4238 4.08963V7.70312H36.4238ZM36.4238 22V23H37.4238V22H36.4238ZM32.0293 22H31.0293V23H32.0293V22ZM32.0293 0.671875V-0.328125H31.0293V0.671875H32.0293ZM36.4238 0.671875L37.2814 0.157508L36.9901 -0.328125H36.4238V0.671875ZM45.0078 14.9834L44.1502 15.4978L46.0078 18.5948V14.9834H45.0078ZM45.0078 0.671875V-0.328125H44.0078V0.671875H45.0078ZM48.3877 0.671875V22H50.3877V0.671875H48.3877ZM49.3877 21H44.9932V23H49.3877V21ZM45.8509 21.4859L37.2816 7.18902L35.5661 8.21723L44.1354 22.5141L45.8509 21.4859ZM35.4238 7.70312V22H37.4238V7.70312H35.4238ZM36.4238 21H32.0293V23H36.4238V21ZM33.0293 22V0.671875H31.0293V22H33.0293ZM32.0293 1.67188H36.4238V-0.328125H32.0293V1.67188ZM35.5663 1.18624L44.1502 15.4978L45.8654 14.469L37.2814 0.157508L35.5663 1.18624ZM46.0078 14.9834V0.671875H44.0078V14.9834H46.0078ZM45.0078 1.67188H49.3877V-0.328125H45.0078V1.67188ZM69.0225 18.5723H70.0225V17.5723H69.0225V18.5723ZM69.0225 22V23H70.0225V22H69.0225ZM57.6699 22H56.6699V23H57.6699V22ZM57.6699 18.5723V17.5723H56.6699V18.5723H57.6699ZM59.1055 0.671875H60.1055V-0.328125H59.1055V0.671875ZM59.1055 22V23H60.1055V22H59.1055ZM54.7109 22H53.7109V23H54.7109V22ZM54.7109 0.671875V-0.328125H53.7109V0.671875H54.7109ZM67.543 9.3584H68.543V8.3584H67.543V9.3584ZM67.543 12.6982V13.6982H68.543V12.6982H67.543ZM57.6699 12.6982H56.6699V13.6982H57.6699V12.6982ZM57.6699 9.3584V8.3584H56.6699V9.3584H57.6699ZM69.0078 0.671875H70.0078V-0.328125H69.0078V0.671875ZM69.0078 4.11426V5.11426H70.0078V4.11426H69.0078ZM57.6699 4.11426H56.6699V5.11426H57.6699V4.11426ZM57.6699 0.671875V-0.328125H56.6699V0.671875H57.6699ZM68.0225 18.5723V22H70.0225V18.5723H68.0225ZM69.0225 21H57.6699V23H69.0225V21ZM58.6699 22V18.5723H56.6699V22H58.6699ZM57.6699 19.5723H69.0225V17.5723H57.6699V19.5723ZM58.1055 0.671875V22H60.1055V0.671875H58.1055ZM59.1055 21H54.7109V23H59.1055V21ZM55.7109 22V0.671875H53.7109V22H55.7109ZM54.7109 1.67188H59.1055V-0.328125H54.7109V1.67188ZM66.543 9.3584V12.6982H68.543V9.3584H66.543ZM67.543 11.6982H57.6699V13.6982H67.543V11.6982ZM58.6699 12.6982V9.3584H56.6699V12.6982H58.6699ZM57.6699 10.3584H67.543V8.3584H57.6699V10.3584ZM68.0078 0.671875V4.11426H70.0078V0.671875H68.0078ZM69.0078 3.11426H57.6699V5.11426H69.0078V3.11426ZM58.6699 4.11426V0.671875H56.6699V4.11426H58.6699ZM57.6699 1.67188H69.0078V-0.328125H57.6699V1.67188ZM81.7578 4.31934L82.708 4.63107L82.7394 4.53522L82.7511 4.43502L81.7578 4.31934ZM75.957 22V23H76.6814L76.9072 22.3117L75.957 22ZM71.2842 22L70.3468 21.6517L69.8458 23H71.2842V22ZM79.209 0.671875V-0.328125H78.5137L78.2716 0.323575L79.209 0.671875ZM82.1826 0.671875L83.1759 0.787559L83.3058 -0.328125H82.1826V0.671875ZM86.5771 22L85.6272 22.3124L85.8534 23H86.5771V22ZM80.7617 4.31934L79.7699 4.4468L79.782 4.54129L79.8118 4.63178L80.7617 4.31934ZM80.293 0.671875V-0.328125H79.1562L79.3011 0.799341L80.293 0.671875ZM83.2959 0.671875L84.2327 0.32188L83.9898 -0.328125H83.2959V0.671875ZM91.2646 22V23H92.7058L92.2014 21.65L91.2646 22ZM86.3135 14.0605H87.3135V13.0605H86.3135V14.0605ZM86.3135 17.5029V18.5029H87.3135V17.5029H86.3135ZM75.0488 17.5029H74.0488V18.5029H75.0488V17.5029ZM75.0488 14.0605V13.0605H74.0488V14.0605H75.0488ZM80.8076 4.0076L75.0069 21.6883L76.9072 22.3117L82.708 4.63107L80.8076 4.0076ZM75.957 21H71.2842V23H75.957V21ZM72.2216 22.3483L80.1464 1.02017L78.2716 0.323575L70.3468 21.6517L72.2216 22.3483ZM79.209 1.67188H82.1826V-0.328125H79.209V1.67188ZM81.1893 0.556191L80.7645 4.20365L82.7511 4.43502L83.1759 0.787559L81.1893 0.556191ZM87.5271 21.6876L81.7117 4.00689L79.8118 4.63178L85.6272 22.3124L87.5271 21.6876ZM81.7536 4.19187L81.2848 0.544409L79.3011 0.799341L79.7699 4.4468L81.7536 4.19187ZM80.293 1.67188H83.2959V-0.328125H80.293V1.67188ZM82.3591 1.02187L90.3279 22.35L92.2014 21.65L84.2327 0.32188L82.3591 1.02187ZM91.2646 21H86.5771V23H91.2646V21ZM85.3135 14.0605V17.5029H87.3135V14.0605H85.3135ZM86.3135 16.5029H75.0488V18.5029H86.3135V16.5029ZM76.0488 17.5029V14.0605H74.0488V17.5029H76.0488ZM75.0488 15.0605H86.3135V13.0605H75.0488V15.0605ZM97.6133 14.3975H96.6133V15.3975H97.6133V14.3975ZM97.6133 10.9697V9.96973H96.6133V10.9697H97.6133ZM105.099 10.5596L105.559 11.4473L105.565 11.444L105.572 11.4406L105.099 10.5596ZM106.256 5.93066L105.343 6.33832L106.256 5.93066ZM99.1367 4.11426V3.11426H98.1367V4.11426H99.1367ZM99.1367 22V23H100.137V22H99.1367ZM94.7422 22H93.7422V23H94.7422V22ZM94.7422 0.671875V-0.328125H93.7422V0.671875H94.7422ZM107.34 1.58008L106.887 2.47161L106.896 2.47596L107.34 1.58008ZM107.34 13.5771L106.925 12.667L106.923 12.6683L107.34 13.5771ZM103.048 13.3975H97.6133V15.3975H103.048V13.3975ZM98.6133 14.3975V10.9697H96.6133V14.3975H98.6133ZM97.6133 11.9697H103.048V9.96973H97.6133V11.9697ZM103.048 11.9697C103.986 11.9697 104.843 11.8186 105.559 11.4473L104.638 9.67182C104.3 9.84738 103.79 9.96973 103.048 9.96973V11.9697ZM105.572 11.4406C106.268 11.0667 106.81 10.5287 107.154 9.82785L105.358 8.94754C105.213 9.24274 104.984 9.48603 104.626 9.67858L105.572 11.4406ZM107.154 9.82785C107.473 9.17631 107.622 8.46122 107.622 7.70312H105.622C105.622 8.19503 105.527 8.60299 105.358 8.94754L107.154 9.82785ZM107.622 7.70312C107.622 6.93645 107.474 6.20576 107.169 5.52301L105.343 6.33832C105.526 6.74932 105.622 7.20027 105.622 7.70312H107.622ZM107.169 5.52301C106.841 4.78797 106.319 4.19896 105.631 3.76607L104.566 5.45854C104.933 5.68971 105.183 5.97961 105.343 6.33832L107.169 5.52301ZM105.631 3.76607C104.898 3.30434 104.013 3.11426 103.048 3.11426V5.11426C103.763 5.11426 104.244 5.25621 104.566 5.45854L105.631 3.76607ZM103.048 3.11426H99.1367V5.11426H103.048V3.11426ZM98.1367 4.11426V22H100.137V4.11426H98.1367ZM99.1367 21H94.7422V23H99.1367V21ZM95.7422 22V0.671875H93.7422V22H95.7422ZM94.7422 1.67188H103.048V-0.328125H94.7422V1.67188ZM103.048 1.67188C104.599 1.67188 105.866 1.95301 106.887 2.47156L107.793 0.688593C106.43 -0.00379348 104.837 -0.328125 103.048 -0.328125V1.67188ZM106.896 2.47596C107.942 2.99474 108.709 3.69467 109.237 4.57133L110.951 3.54C110.209 2.30728 109.14 1.35682 107.784 0.684199L106.896 2.47596ZM109.237 4.57133C109.769 5.45464 110.046 6.47888 110.046 7.67383H112.046C112.046 6.15393 111.688 4.76606 110.951 3.54L109.237 4.57133ZM110.046 7.67383C110.046 8.89228 109.767 9.89214 109.248 10.7144L110.939 11.7817C111.69 10.5922 112.046 9.20929 112.046 7.67383H110.046ZM109.248 10.7144C108.729 11.5376 107.969 12.1917 106.925 12.667L107.754 14.4873C109.113 13.8688 110.189 12.9702 110.939 11.7817L109.248 10.7144ZM106.923 12.6683C105.893 13.141 104.612 13.3975 103.048 13.3975V15.3975C104.824 15.3975 106.404 15.107 107.757 14.486L106.923 12.6683ZM118.449 14.3975H117.449V15.3975H118.449V14.3975ZM118.449 10.9697V9.96973H117.449V10.9697H118.449ZM125.935 10.5596L126.395 11.4473L126.401 11.444L126.408 11.4406L125.935 10.5596ZM127.092 5.93066L126.179 6.33832L127.092 5.93066ZM119.973 4.11426V3.11426H118.973V4.11426H119.973ZM119.973 22V23H120.973V22H119.973ZM115.578 22H114.578V23H115.578V22ZM115.578 0.671875V-0.328125H114.578V0.671875H115.578ZM128.176 1.58008L127.723 2.47161L127.731 2.47596L128.176 1.58008ZM128.176 13.5771L127.761 12.667L127.759 12.6683L128.176 13.5771ZM123.884 13.3975H118.449V15.3975H123.884V13.3975ZM119.449 14.3975V10.9697H117.449V14.3975H119.449ZM118.449 11.9697H123.884V9.96973H118.449V11.9697ZM123.884 11.9697C124.822 11.9697 125.679 11.8186 126.395 11.4473L125.474 9.67182C125.136 9.84738 124.626 9.96973 123.884 9.96973V11.9697ZM126.408 11.4406C127.104 11.0667 127.646 10.5287 127.99 9.82785L126.194 8.94754C126.049 9.24274 125.82 9.48603 125.461 9.67858L126.408 11.4406ZM127.99 9.82785C128.309 9.17631 128.458 8.46122 128.458 7.70312H126.458C126.458 8.19503 126.363 8.60299 126.194 8.94754L127.99 9.82785ZM128.458 7.70312C128.458 6.93645 128.31 6.20576 128.005 5.52301L126.179 6.33832C126.362 6.74932 126.458 7.20027 126.458 7.70312H128.458ZM128.005 5.52301C127.677 4.78797 127.155 4.19896 126.467 3.76607L125.402 5.45854C125.769 5.68971 126.019 5.97961 126.179 6.33832L128.005 5.52301ZM126.467 3.76607C125.734 3.30434 124.849 3.11426 123.884 3.11426V5.11426C124.599 5.11426 125.08 5.25621 125.402 5.45854L126.467 3.76607ZM123.884 3.11426H119.973V5.11426H123.884V3.11426ZM118.973 4.11426V22H120.973V4.11426H118.973ZM119.973 21H115.578V23H119.973V21ZM116.578 22V0.671875H114.578V22H116.578ZM115.578 1.67188H123.884V-0.328125H115.578V1.67188ZM123.884 1.67188C125.435 1.67188 126.702 1.95301 127.723 2.47156L128.629 0.688593C127.266 -0.00379348 125.673 -0.328125 123.884 -0.328125V1.67188ZM127.731 2.47596C128.778 2.99474 129.545 3.69467 130.073 4.57133L131.786 3.54C131.045 2.30728 129.976 1.35682 128.62 0.684199L127.731 2.47596ZM130.073 4.57133C130.605 5.45464 130.882 6.47888 130.882 7.67383H132.882C132.882 6.15393 132.524 4.76606 131.786 3.54L130.073 4.57133ZM130.882 7.67383C130.882 8.89228 130.603 9.89214 130.084 10.7144L131.775 11.7817C132.526 10.5922 132.882 9.20929 132.882 7.67383H130.882ZM130.084 10.7144C129.564 11.5376 128.805 12.1917 127.761 12.667L128.59 14.4873C129.949 13.8688 131.025 12.9702 131.775 11.7817L130.084 10.7144ZM127.759 12.6683C126.729 13.141 125.448 13.3975 123.884 13.3975V15.3975C125.66 15.3975 127.24 15.107 128.593 14.486L127.759 12.6683ZM150.125 18.5723H151.125V17.5723H150.125V18.5723ZM150.125 22V23H151.125V22H150.125ZM139.388 22H138.388V23H139.388V22ZM139.388 18.5723V17.5723H138.388V18.5723H139.388ZM140.809 0.671875H141.809V-0.328125H140.809V0.671875ZM140.809 22V23H141.809V22H140.809ZM136.414 22H135.414V23H136.414V22ZM136.414 0.671875V-0.328125H135.414V0.671875H136.414ZM149.125 18.5723V22H151.125V18.5723H149.125ZM150.125 21H139.388V23H150.125V21ZM140.388 22V18.5723H138.388V22H140.388ZM139.388 19.5723H150.125V17.5723H139.388V19.5723ZM139.809 0.671875V22H141.809V0.671875H139.809ZM140.809 21H136.414V23H140.809V21ZM137.414 22V0.671875H135.414V22H137.414ZM136.414 1.67188H140.809V-0.328125H136.414V1.67188ZM168.456 18.5723H169.456V17.5723H168.456V18.5723ZM168.456 22V23H169.456V22H168.456ZM157.104 22H156.104V23H157.104V22ZM157.104 18.5723V17.5723H156.104V18.5723H157.104ZM158.539 0.671875H159.539V-0.328125H158.539V0.671875ZM158.539 22V23H159.539V22H158.539ZM154.145 22H153.145V23H154.145V22ZM154.145 0.671875V-0.328125H153.145V0.671875H154.145ZM166.977 9.3584H167.977V8.3584H166.977V9.3584ZM166.977 12.6982V13.6982H167.977V12.6982H166.977ZM157.104 12.6982H156.104V13.6982H157.104V12.6982ZM157.104 9.3584V8.3584H156.104V9.3584H157.104ZM168.441 0.671875H169.441V-0.328125H168.441V0.671875ZM168.441 4.11426V5.11426H169.441V4.11426H168.441ZM157.104 4.11426H156.104V5.11426H157.104V4.11426ZM157.104 0.671875V-0.328125H156.104V0.671875H157.104ZM167.456 18.5723V22H169.456V18.5723H167.456ZM168.456 21H157.104V23H168.456V21ZM158.104 22V18.5723H156.104V22H158.104ZM157.104 19.5723H168.456V17.5723H157.104V19.5723ZM157.539 0.671875V22H159.539V0.671875H157.539ZM158.539 21H154.145V23H158.539V21ZM155.145 22V0.671875H153.145V22H155.145ZM154.145 1.67188H158.539V-0.328125H154.145V1.67188ZM165.977 9.3584V12.6982H167.977V9.3584H165.977ZM166.977 11.6982H157.104V13.6982H166.977V11.6982ZM158.104 12.6982V9.3584H156.104V12.6982H158.104ZM157.104 10.3584H166.977V8.3584H157.104V10.3584ZM167.441 0.671875V4.11426H169.441V0.671875H167.441ZM168.441 3.11426H157.104V5.11426H168.441V3.11426ZM158.104 4.11426V0.671875H156.104V4.11426H158.104ZM157.104 1.67188H168.441V-0.328125H157.104V1.67188Z" fill="#FECD1D"/>
</g>
</svg>
