<?xml version="1.0" encoding="utf-8"?>
<!-- Generator: Adobe Illustrator 18.0.0, SVG Export Plug-In . SVG Version: 6.00 Build 0)  -->
<!DOCTYPE svg PUBLIC "-//W3C//DTD SVG 1.1//EN" "http://www.w3.org/Graphics/SVG/1.1/DTD/svg11.dtd">
<svg version="1.1" id="Layer_1" xmlns="http://www.w3.org/2000/svg" xmlns:xlink="http://www.w3.org/1999/xlink" x="0px" y="0px"
	 viewBox="0 0 79.7 79.7" enable-background="new 0 0 79.7 79.7" xml:space="preserve">
<g>
	<path fill="#FEFEFE" d="M7.3,62.1c0,0.5-0.1,0.9,0,1.3c0.5,2.8,2.1,4.7,4.7,5.8c1.3,0.6,2.7,0.4,4.1,0.5c1.5,0.1,2.9,0.5,4.1,1.3
		c1.5,1,2.4,2.4,3.1,4c1.3,3.1,5,5.3,8.6,4.5c1.1-0.3,2.2-0.8,3.2-1.4c1.9-1.2,3.9-1.7,6.1-1.3c1.3,0.2,2.4,0.9,3.5,1.5
		c1.5,1,3.2,1.5,5.1,1.3c2.6-0.4,4.6-1.7,5.9-3.9c0.4-0.7,0.7-1.4,1.1-2c1.4-2.3,3.4-3.6,6.2-3.9c1-0.1,2,0,3.1-0.2
		c3.5-0.7,6.1-3.7,6.2-7.2c0-1.4-0.3-2.8-0.2-4.3c0.2-2.1,1.1-3.8,2.7-5.2c0.9-0.8,1.9-1.2,2.8-1.9c1.6-1.3,2.6-2.8,2.4-4.9
		c-0.1-0.6,0-1.3,0-1.9c0-0.3-0.1-0.6-0.2-0.9c-0.9-1.5-1.8-3-2.8-4.4c-0.9-1.2-1.4-2.6-1.6-4.1c-0.2-1.3,0.3-2.6,0.9-3.8
		c0.8-1.6,1.2-3.2,0.9-5c-0.6-3.7-2.8-5.9-6.3-6.8c-2.6-0.7-4.3-2.2-5.2-4.7c-0.4-1-0.4-2.1-0.7-3.1c-0.8-3.1-2.7-5.2-5.9-5.9
		c-1.6-0.4-3.2,0-4.8,0.4C51.2,6.6,48.8,6,46.6,4c-0.6-0.5-1.1-1.2-1.6-1.7c-2.1-2.1-4.7-2.8-7.6-2c-1.9,0.5-3.2,1.8-4.5,3.2
		c-2.4,2.7-5.4,3.1-8.4,2.2c-1.6-0.5-3.3-0.6-4.9-0.2c-2.6,0.7-4.1,2.4-5.1,4.8c-0.4,1-0.5,2.2-0.7,3.2c-0.7,3-2.5,4.8-5.5,5.6
		c-2.8,0.7-4.8,2.4-5.8,5.2c-0.8,2.3-0.6,4.6,0.6,6.7c1.3,2.4,1.3,4.9-0.1,7.2c-0.9,1.5-1.8,3.1-2.6,4.7C0.2,43.3,0,43.7,0,44.2
		c0,0.9-0.2,1.9,0.1,2.8c0.8,2.3,2.2,4.2,4.3,5.5c0.5,0.3,1,0.7,1.4,1.1c1.2,1.3,1.6,3,1.7,4.7C7.6,59.6,7.2,60.8,7.3,62.1z"/>
	<path fill="#FFFFFF" d="M7.3,62.1c-0.1-1.2,0.3-2.5,0.2-3.7C7.4,56.6,7,55,5.8,53.6c-0.4-0.5-0.9-0.8-1.4-1.1
		C2.4,51.2,1,49.3,0.2,47c-0.3-0.9-0.1-1.9-0.1-2.8c0-0.5,0.1-0.9,0.4-1.3c0.8-1.6,1.7-3.1,2.6-4.7c1.4-2.4,1.4-4.8,0.1-7.2
		c-1.2-2.2-1.4-4.4-0.6-6.7c1-2.8,3-4.5,5.8-5.2c3-0.7,4.8-2.6,5.5-5.6c0.3-1.1,0.3-2.2,0.7-3.2c0.9-2.4,2.5-4.1,5.1-4.8
		c1.7-0.4,3.3-0.3,4.9,0.2c3,0.9,6,0.5,8.4-2.2c1.3-1.4,2.6-2.7,4.5-3.2c2.9-0.8,5.4,0,7.6,2c0.6,0.5,1.1,1.2,1.6,1.7
		c2.1,2,4.6,2.5,7.4,1.7c1.6-0.5,3.2-0.8,4.8-0.4c3.2,0.7,5.1,2.8,5.9,5.9c0.3,1,0.3,2.1,0.7,3.1c0.9,2.5,2.6,4.1,5.2,4.7
		c3.6,0.9,5.8,3.2,6.3,6.8c0.3,1.7-0.1,3.4-0.9,5c-0.6,1.2-1.1,2.4-0.9,3.8c0.2,1.5,0.7,2.8,1.6,4.1c1,1.4,1.9,2.9,2.8,4.4
		c0.2,0.3,0.2,0.6,0.2,0.9c0,0.6,0,1.3,0,1.9c0.2,2.1-0.9,3.6-2.4,4.9c-0.9,0.7-1.9,1.2-2.8,1.9c-1.6,1.4-2.5,3.1-2.7,5.2
		c-0.1,1.4,0.2,2.8,0.2,4.3c-0.1,3.6-2.6,6.6-6.2,7.2c-1,0.2-2,0.1-3.1,0.2c-2.7,0.3-4.8,1.6-6.2,3.9c-0.4,0.7-0.7,1.4-1.1,2
		c-1.3,2.3-3.2,3.6-5.9,3.9c-1.9,0.3-3.5-0.3-5.1-1.3c-1.1-0.7-2.2-1.3-3.5-1.5c-2.2-0.4-4.2,0.1-6.1,1.3c-1,0.6-2,1.1-3.2,1.4
		c-3.6,0.9-7.2-1.4-8.6-4.5c-0.7-1.6-1.6-3-3.1-4c-1.2-0.8-2.6-1.2-4.1-1.3c-1.4-0.1-2.7,0-4.1-0.5c-2.6-1.1-4.1-3-4.7-5.8
		C7.2,62.9,7.3,62.5,7.3,62.1z M32.8,58.8c0.1-0.1,0.2-0.2,0.3-0.3c1.5-1.5,3-3,4.5-4.5c8.1-8.1,16.2-16.2,24.3-24.3
		c0.3-0.3,0.3-0.5,0-0.8c-2.1-2.1-4.2-4.1-6.2-6.2c-0.4-0.4-0.6-0.3-0.9,0c-7.2,7.2-14.4,14.4-21.6,21.7c-0.3,0.3-0.5,0.4-0.9,0
		c-2.8-2.9-5.7-5.7-8.5-8.5c-0.4-0.4-0.5-0.3-0.9,0c-2,2.1-4.1,4.1-6.1,6.1c-0.3,0.3-0.4,0.5,0,0.8c3.4,3.3,6.7,6.7,10,10.1
		c1.9,1.9,3.7,3.7,5.6,5.6C32.5,58.6,32.6,58.7,32.8,58.8z"/>
	<path fill="#9EC291" d="M32.8,58.8c-0.1-0.1-0.3-0.2-0.4-0.3c-1.9-1.9-3.7-3.7-5.6-5.6c-3.3-3.4-6.7-6.7-10-10.1
		c-0.4-0.3-0.3-0.5,0-0.8c2.1-2,4.1-4.1,6.1-6.1c0.3-0.3,0.5-0.4,0.9,0c2.8,2.9,5.7,5.7,8.5,8.5c0.4,0.4,0.6,0.3,0.9,0
		c7.2-7.2,14.4-14.4,21.6-21.7c0.3-0.3,0.5-0.4,0.9,0c2.1,2.1,4.1,4.2,6.2,6.2c0.3,0.3,0.3,0.5,0,0.8c-8.1,8.1-16.2,16.2-24.3,24.3
		c-1.5,1.5-3,3-4.5,4.5C33,58.6,32.9,58.7,32.8,58.8z"/>
</g>
</svg>
